<svg width="139" height="45" viewBox="0 0 139 45" fill="none" xmlns="http://www.w3.org/2000/svg">
<path d="M7.33723 7.33709H0.000135779V4.41074e-06H7.33723V7.33709ZM16.6753 7.33709H9.33825V4.41074e-06H16.6753V7.33709ZM26.0135 7.33709H18.6764V4.41074e-06H26.0135V7.33709ZM7.33723 16.6752H0.000135779V9.33812H7.33723V16.6752ZM7.33723 26.0133H0.000135779V18.6762H7.33723V26.0133ZM16.6753 26.0133H9.33825V18.6762H16.6753V26.0133ZM26.0135 26.0133H18.6764V18.6762H26.0135V26.0133ZM7.33723 35.3514H0.000135779V28.0143H7.33723V35.3514ZM7.33723 44.6896H0.000135779V37.3525H7.33723V44.6896ZM16.6753 44.6896H9.33825V37.3525H16.6753V44.6896ZM26.0135 44.6896H18.6764V37.3525H26.0135V44.6896ZM54.0278 7.33709H46.6907V4.41074e-06H54.0278V7.33709ZM63.3659 7.33709H56.0288V4.41074e-06H63.3659V7.33709ZM44.6897 16.6752H37.3526V9.33812H44.6897V16.6752ZM44.6897 26.0133H37.3526V18.6762H44.6897V26.0133ZM63.3659 26.0133H56.0288V18.6762H63.3659V26.0133ZM44.6897 35.3514H37.3526V28.0143H44.6897V35.3514ZM63.3659 35.3514H56.0288V28.0143H63.3659V35.3514ZM54.0278 44.6896H46.6907V37.3525H54.0278V44.6896ZM63.3659 44.6896H56.0288V37.3525H63.3659V44.6896ZM91.3803 7.33709H84.0432V4.41074e-06H91.3803V7.33709ZM82.0421 16.6752H74.705V9.33812H82.0421V16.6752ZM100.718 16.6752H93.3813V9.33812H100.718V16.6752ZM82.0421 26.0133H74.705V18.6762H82.0421V26.0133ZM100.718 26.0133H93.3813V18.6762H100.718V26.0133ZM82.0421 35.3514H74.705V28.0143H82.0421V35.3514ZM100.718 35.3514H93.3813V28.0143H100.718V35.3514ZM91.3803 44.6896H84.0432V37.3525H91.3803V44.6896ZM119.395 7.33709H112.058V4.41074e-06H119.395V7.33709ZM128.733 7.33709H121.396V4.41074e-06H128.733V7.33709ZM119.395 16.6752H112.058V9.33812H119.395V16.6752ZM138.071 16.6752H130.734V9.33812H138.071V16.6752ZM119.395 26.0133H112.058V18.6762H119.395V26.0133ZM128.733 26.0133H121.396V18.6762H128.733V26.0133ZM119.395 35.3514H112.058V28.0143H119.395V35.3514ZM138.071 35.3514H130.734V28.0143H138.071V35.3514ZM119.395 44.6896H112.058V37.3525H119.395V44.6896ZM138.071 44.6896H130.734V37.3525H138.071V44.6896Z" fill="white"/>
</svg>
